<svg width="110" height="180" viewBox="0 0 110 180" fill="none" xmlns="http://www.w3.org/2000/svg">
<path d="M26.784 120.678C28.6558 116.125 35.0727 115.923 37.2313 120.349L42.7475 131.659C43.6378 133.484 45.4404 134.7 47.4774 134.849L60.0982 135.771C65.0371 136.132 67.2136 142.129 63.6418 145.536L54.5144 154.24C53.0413 155.645 52.434 157.723 52.9209 159.693L55.9378 171.898C57.1184 176.674 52.0466 180.583 47.6805 178.262L36.5233 172.332C34.7226 171.374 32.5446 171.443 30.8085 172.512L20.0523 179.132C15.8431 181.723 10.532 178.141 11.4054 173.301L13.6373 160.931C13.9975 158.934 13.2587 156.899 11.6989 155.589L2.03423 147.477C-1.74779 144.302 0.0415513 138.179 4.94743 137.508L17.484 135.793C19.5074 135.517 21.2288 134.19 22.0008 132.312L26.784 120.678Z" fill="white"/>
<path d="M72.0113 14.5099C72.0113 14.5099 81.8602 -2.52856 94.5231 0.321458C107.153 3.16426 100.653 20.0068 100.62 20.0932L87.9122 43.7226C92.7748 40.0256 100.044 35.9081 105.96 38.476C115.78 42.7388 104.619 61.1682 104.553 61.2769L75.9437 115.967C75.9003 116.042 66.0676 132.998 53.4328 130.155C46.9554 128.697 45.5093 123.557 45.6422 118.883C45.8071 113.088 48.7686 107.86 51.6228 102.835L59.5838 88.8169C53.5317 91.763 46.611 94.0035 41.9956 92.0001C32.1499 87.7261 43.3957 69.2105 43.4026 69.1992L72.0113 14.5099Z" fill="white"/>
</svg>
